<svg width="200" height="200" viewBox="0 0 200 200" fill="none" xmlns="http://www.w3.org/2000/svg">
  <!-- Background -->
  <rect width="200" height="200" rx="8" fill="#2A2B2E"/>
  
  <!-- Dashed border -->
  <rect x="8" y="8" width="184" height="184" rx="4" stroke="#4B5563" stroke-width="2" stroke-dasharray="8 4" fill="none"/>
  
  <!-- Product icon (box/package) -->
  <g transform="translate(60, 50)">
    <!-- Box body -->
    <path d="M40 20L80 40V90L40 70V20Z" fill="#6466E9" fill-opacity="0.3"/>
    <path d="M40 20L0 40V90L40 70V20Z" fill="#6466E9" fill-opacity="0.5"/>
    <path d="M0 40L40 20L80 40L40 60L0 40Z" fill="#6466E9" fill-opacity="0.7"/>
    
    <!-- Box outline -->
    <path d="M40 20L80 40V90L40 70V20Z" stroke="#6466E9" stroke-width="2" fill="none"/>
    <path d="M40 20L0 40V90L40 70V20Z" stroke="#6466E9" stroke-width="2" fill="none"/>
    <path d="M0 40L40 20L80 40L40 60L0 40Z" stroke="#6466E9" stroke-width="2" fill="none"/>
    <path d="M40 60V70" stroke="#6466E9" stroke-width="2"/>
  </g>
  
  <!-- Text -->
  <text x="100" y="165" text-anchor="middle" fill="#6B7280" font-family="system-ui, -apple-system, sans-serif" font-size="12" font-weight="500">Product Image</text>
</svg>

