<svg xmlns="http://www.w3.org/2000/svg" width="60" height="60" viewBox="0 0 60 60">
  <defs>
    <pattern id="cityBlocks4" patternUnits="userSpaceOnUse" width="60" height="60">
      <rect width="60" height="60" fill="#18191A"/>
      
      <!-- Curved main road -->
      <path d="M0 30 Q15 25, 30 30 T60 30" fill="none" stroke="#2d2e30" stroke-width="3"/>
      
      <!-- Straight cross streets -->
      <rect x="14" y="0" width="2" height="60" fill="#2d2e30"/>
      <rect x="44" y="0" width="2" height="60" fill="#2d2e30"/>
      
      <!-- Buildings - top section -->
      <rect x="3" y="4" width="4" height="6" rx="0.5" fill="none" stroke="#6466e9" stroke-width="0.5" opacity="0.5"/>
      <rect x="8" y="5" width="3" height="5" rx="0.5" fill="none" stroke="#6466e9" stroke-width="0.5" opacity="0.45"/>
      <rect x="3" y="12" width="5" height="4" rx="0.5" fill="none" stroke="#6466e9" stroke-width="0.5" opacity="0.45"/>
      <rect x="9" y="13" width="3" height="3" rx="0.5" fill="none" stroke="#6466e9" stroke-width="0.5" opacity="0.4"/>
      
      <rect x="19" y="4" width="5" height="5" rx="0.5" fill="none" stroke="#6466e9" stroke-width="0.5" opacity="0.5"/>
      <rect x="25" y="3" width="4" height="6" rx="0.5" fill="none" stroke="#6466e9" stroke-width="0.5" opacity="0.45"/>
      <rect x="30" y="5" width="5" height="4" rx="0.5" fill="none" stroke="#6466e9" stroke-width="0.5" opacity="0.5"/>
      <rect x="36" y="4" width="4" height="5" rx="0.5" fill="none" stroke="#6466e9" stroke-width="0.5" opacity="0.45"/>
      <rect x="18" y="12" width="4" height="4" rx="0.5" fill="none" stroke="#6466e9" stroke-width="0.5" opacity="0.45"/>
      <rect x="23" y="11" width="5" height="5" rx="0.5" fill="#6466e9" fill-opacity="0.2" stroke="#6466e9" stroke-width="0.5" opacity="0.55"/>
      <rect x="29" y="13" width="4" height="3" rx="0.5" fill="none" stroke="#6466e9" stroke-width="0.5" opacity="0.4"/>
      <rect x="34" y="12" width="5" height="4" rx="0.5" fill="none" stroke="#6466e9" stroke-width="0.5" opacity="0.5"/>
      
      <rect x="49" y="4" width="4" height="5" rx="0.5" fill="none" stroke="#6466e9" stroke-width="0.5" opacity="0.5"/>
      <rect x="54" y="5" width="3" height="4" rx="0.5" fill="none" stroke="#6466e9" stroke-width="0.5" opacity="0.45"/>
      <rect x="48" y="11" width="5" height="4" rx="0.5" fill="none" stroke="#6466e9" stroke-width="0.5" opacity="0.45"/>
      <rect x="54" y="12" width="4" height="5" rx="0.5" fill="none" stroke="#6466e9" stroke-width="0.5" opacity="0.4"/>
      
      <!-- Buildings - bottom section -->
      <rect x="3" y="38" width="5" height="4" rx="0.5" fill="none" stroke="#6466e9" stroke-width="0.5" opacity="0.5"/>
      <rect x="9" y="37" width="3" height="5" rx="0.5" fill="none" stroke="#6466e9" stroke-width="0.5" opacity="0.45"/>
      <rect x="4" y="44" width="4" height="5" rx="0.5" fill="none" stroke="#6466e9" stroke-width="0.5" opacity="0.45"/>
      <rect x="9" y="45" width="3" height="4" rx="0.5" fill="none" stroke="#6466e9" stroke-width="0.5" opacity="0.4"/>
      <rect x="3" y="52" width="5" height="4" rx="0.5" fill="none" stroke="#6466e9" stroke-width="0.5" opacity="0.5"/>
      <rect x="9" y="53" width="3" height="3" rx="0.5" fill="none" stroke="#6466e9" stroke-width="0.5" opacity="0.4"/>
      
      <rect x="18" y="38" width="4" height="5" rx="0.5" fill="none" stroke="#6466e9" stroke-width="0.5" opacity="0.5"/>
      <rect x="23" y="37" width="5" height="4" rx="0.5" fill="none" stroke="#6466e9" stroke-width="0.5" opacity="0.45"/>
      <rect x="29" y="38" width="4" height="5" rx="0.5" fill="none" stroke="#6466e9" stroke-width="0.5" opacity="0.45"/>
      <rect x="34" y="37" width="5" height="4" rx="0.5" fill="none" stroke="#6466e9" stroke-width="0.5" opacity="0.5"/>
      <rect x="19" y="45" width="5" height="4" rx="0.5" fill="none" stroke="#6466e9" stroke-width="0.5" opacity="0.45"/>
      <rect x="25" y="44" width="4" height="5" rx="0.5" fill="#6466e9" fill-opacity="0.2" stroke="#6466e9" stroke-width="0.5" opacity="0.55"/>
      <rect x="30" y="46" width="5" height="3" rx="0.5" fill="none" stroke="#6466e9" stroke-width="0.5" opacity="0.4"/>
      <rect x="36" y="44" width="4" height="5" rx="0.5" fill="none" stroke="#6466e9" stroke-width="0.5" opacity="0.5"/>
      <rect x="18" y="52" width="4" height="4" rx="0.5" fill="none" stroke="#6466e9" stroke-width="0.5" opacity="0.5"/>
      <rect x="23" y="53" width="5" height="3" rx="0.5" fill="none" stroke="#6466e9" stroke-width="0.5" opacity="0.45"/>
      <rect x="29" y="52" width="4" height="4" rx="0.5" fill="none" stroke="#6466e9" stroke-width="0.5" opacity="0.45"/>
      <rect x="34" y="53" width="5" height="3" rx="0.5" fill="none" stroke="#6466e9" stroke-width="0.5" opacity="0.4"/>
      
      <rect x="48" y="38" width="5" height="4" rx="0.5" fill="none" stroke="#6466e9" stroke-width="0.5" opacity="0.5"/>
      <rect x="54" y="37" width="4" height="5" rx="0.5" fill="none" stroke="#6466e9" stroke-width="0.5" opacity="0.45"/>
      <rect x="49" y="44" width="4" height="5" rx="0.5" fill="none" stroke="#6466e9" stroke-width="0.5" opacity="0.45"/>
      <rect x="54" y="45" width="3" height="4" rx="0.5" fill="none" stroke="#6466e9" stroke-width="0.5" opacity="0.4"/>
      <rect x="48" y="52" width="5" height="4" rx="0.5" fill="none" stroke="#6466e9" stroke-width="0.5" opacity="0.5"/>
      <rect x="54" y="53" width="4" height="3" rx="0.5" fill="none" stroke="#6466e9" stroke-width="0.5" opacity="0.4"/>
      
      <!-- Location marker -->
      <circle cx="26" cy="14" r="1.2" fill="#F97316" opacity="0.8"/>
    </pattern>
  </defs>
  <rect width="60" height="60" fill="url(#cityBlocks4)"/>
</svg>

