<svg xmlns="http://www.w3.org/2000/svg" width="80" height="80" viewBox="0 0 80 80">
  <defs>
    <pattern id="cityBlocks3" patternUnits="userSpaceOnUse" width="80" height="80">
      <rect width="80" height="80" fill="#18191A"/>
      
      <!-- Major arterial roads -->
      <rect x="0" y="38" width="80" height="4" fill="#2d2e30"/>
      <rect x="38" y="0" width="4" height="80" fill="#2d2e30"/>
      
      <!-- Minor streets -->
      <rect x="0" y="18" width="80" height="1.5" fill="#252627" opacity="0.7"/>
      <rect x="0" y="58" width="80" height="1.5" fill="#252627" opacity="0.7"/>
      <rect x="18" y="0" width="1.5" height="80" fill="#252627" opacity="0.7"/>
      <rect x="58" y="0" width="1.5" height="80" fill="#252627" opacity="0.7"/>
      
      <!-- Dense building cluster - top left -->
      <rect x="3" y="3" width="5" height="4" rx="0.5" fill="none" stroke="#6466e9" stroke-width="0.5" opacity="0.5"/>
      <rect x="9" y="2" width="4" height="5" rx="0.5" fill="none" stroke="#6466e9" stroke-width="0.5" opacity="0.45"/>
      <rect x="14" y="3" width="3" height="4" rx="0.5" fill="none" stroke="#6466e9" stroke-width="0.5" opacity="0.4"/>
      <rect x="3" y="9" width="4" height="3" rx="0.5" fill="none" stroke="#6466e9" stroke-width="0.5" opacity="0.45"/>
      <rect x="8" y="8" width="5" height="5" rx="0.5" fill="none" stroke="#6466e9" stroke-width="0.5" opacity="0.5"/>
      <rect x="14" y="9" width="3" height="4" rx="0.5" fill="none" stroke="#6466e9" stroke-width="0.5" opacity="0.4"/>
      
      <!-- Top right cluster -->
      <rect x="45" y="3" width="4" height="5" rx="0.5" fill="none" stroke="#6466e9" stroke-width="0.5" opacity="0.45"/>
      <rect x="50" y="2" width="5" height="4" rx="0.5" fill="none" stroke="#6466e9" stroke-width="0.5" opacity="0.5"/>
      <rect x="56" y="3" width="3" height="5" rx="0.5" fill="none" stroke="#6466e9" stroke-width="0.5" opacity="0.4"/>
      <rect x="44" y="9" width="5" height="4" rx="0.5" fill="none" stroke="#6466e9" stroke-width="0.5" opacity="0.5"/>
      <rect x="50" y="8" width="4" height="5" rx="0.5" fill="none" stroke="#6466e9" stroke-width="0.5" opacity="0.45"/>
      <rect x="55" y="10" width="4" height="3" rx="0.5" fill="none" stroke="#6466e9" stroke-width="0.5" opacity="0.4"/>
      
      <!-- Row 2 - between minor and major streets -->
      <rect x="3" y="22" width="5" height="5" rx="0.5" fill="none" stroke="#6466e9" stroke-width="0.5" opacity="0.5"/>
      <rect x="9" y="21" width="4" height="6" rx="0.5" fill="none" stroke="#6466e9" stroke-width="0.5" opacity="0.45"/>
      <rect x="14" y="23" width="3" height="4" rx="0.5" fill="none" stroke="#6466e9" stroke-width="0.5" opacity="0.4"/>
      <rect x="3" y="29" width="4" height="4" rx="0.5" fill="none" stroke="#6466e9" stroke-width="0.5" opacity="0.45"/>
      <rect x="8" y="28" width="5" height="5" rx="0.5" fill="#6466e9" fill-opacity="0.2" stroke="#6466e9" stroke-width="0.5" opacity="0.55"/>
      <rect x="14" y="30" width="3" height="3" rx="0.5" fill="none" stroke="#6466e9" stroke-width="0.5" opacity="0.4"/>
      
      <rect x="44" y="22" width="5" height="4" rx="0.5" fill="none" stroke="#6466e9" stroke-width="0.5" opacity="0.5"/>
      <rect x="50" y="21" width="4" height="5" rx="0.5" fill="none" stroke="#6466e9" stroke-width="0.5" opacity="0.45"/>
      <rect x="55" y="23" width="4" height="4" rx="0.5" fill="none" stroke="#6466e9" stroke-width="0.5" opacity="0.4"/>
      <rect x="45" y="28" width="4" height="5" rx="0.5" fill="none" stroke="#6466e9" stroke-width="0.5" opacity="0.45"/>
      <rect x="50" y="29" width="5" height="4" rx="0.5" fill="none" stroke="#6466e9" stroke-width="0.5" opacity="0.5"/>
      <rect x="56" y="28" width="3" height="5" rx="0.5" fill="none" stroke="#6466e9" stroke-width="0.5" opacity="0.4"/>
      
      <!-- Bottom left cluster -->
      <rect x="3" y="45" width="5" height="4" rx="0.5" fill="none" stroke="#6466e9" stroke-width="0.5" opacity="0.5"/>
      <rect x="9" y="44" width="4" height="5" rx="0.5" fill="none" stroke="#6466e9" stroke-width="0.5" opacity="0.45"/>
      <rect x="14" y="46" width="3" height="3" rx="0.5" fill="none" stroke="#6466e9" stroke-width="0.5" opacity="0.4"/>
      <rect x="4" y="51" width="4" height="4" rx="0.5" fill="none" stroke="#6466e9" stroke-width="0.5" opacity="0.45"/>
      <rect x="9" y="50" width="5" height="5" rx="0.5" fill="none" stroke="#6466e9" stroke-width="0.5" opacity="0.5"/>
      <rect x="15" y="52" width="2" height="3" rx="0.5" fill="none" stroke="#6466e9" stroke-width="0.5" opacity="0.4"/>
      
      <!-- Bottom right cluster -->
      <rect x="44" y="44" width="5" height="5" rx="0.5" fill="#6466e9" fill-opacity="0.2" stroke="#6466e9" stroke-width="0.5" opacity="0.55"/>
      <rect x="50" y="45" width="4" height="4" rx="0.5" fill="none" stroke="#6466e9" stroke-width="0.5" opacity="0.45"/>
      <rect x="55" y="44" width="4" height="5" rx="0.5" fill="none" stroke="#6466e9" stroke-width="0.5" opacity="0.4"/>
      <rect x="45" y="51" width="4" height="4" rx="0.5" fill="none" stroke="#6466e9" stroke-width="0.5" opacity="0.5"/>
      <rect x="50" y="50" width="5" height="5" rx="0.5" fill="none" stroke="#6466e9" stroke-width="0.5" opacity="0.45"/>
      <rect x="56" y="52" width="3" height="3" rx="0.5" fill="none" stroke="#6466e9" stroke-width="0.5" opacity="0.4"/>
      
      <!-- Far bottom clusters -->
      <rect x="3" y="62" width="4" height="5" rx="0.5" fill="none" stroke="#6466e9" stroke-width="0.5" opacity="0.45"/>
      <rect x="8" y="61" width="5" height="4" rx="0.5" fill="none" stroke="#6466e9" stroke-width="0.5" opacity="0.5"/>
      <rect x="14" y="63" width="3" height="4" rx="0.5" fill="none" stroke="#6466e9" stroke-width="0.5" opacity="0.4"/>
      <rect x="4" y="69" width="5" height="4" rx="0.5" fill="none" stroke="#6466e9" stroke-width="0.5" opacity="0.5"/>
      <rect x="10" y="68" width="4" height="5" rx="0.5" fill="none" stroke="#6466e9" stroke-width="0.5" opacity="0.45"/>
      <rect x="15" y="70" width="2" height="3" rx="0.5" fill="none" stroke="#6466e9" stroke-width="0.5" opacity="0.4"/>
      
      <rect x="44" y="62" width="5" height="4" rx="0.5" fill="none" stroke="#6466e9" stroke-width="0.5" opacity="0.5"/>
      <rect x="50" y="61" width="4" height="5" rx="0.5" fill="none" stroke="#6466e9" stroke-width="0.5" opacity="0.45"/>
      <rect x="55" y="63" width="4" height="4" rx="0.5" fill="none" stroke="#6466e9" stroke-width="0.5" opacity="0.4"/>
      <rect x="45" y="68" width="4" height="5" rx="0.5" fill="none" stroke="#6466e9" stroke-width="0.5" opacity="0.45"/>
      <rect x="50" y="69" width="5" height="4" rx="0.5" fill="none" stroke="#6466e9" stroke-width="0.5" opacity="0.5"/>
      <rect x="56" y="68" width="3" height="5" rx="0.5" fill="none" stroke="#6466e9" stroke-width="0.5" opacity="0.4"/>
      
      <!-- Location markers -->
      <circle cx="10" cy="30" r="1.5" fill="#F97316" opacity="0.8"/>
      <circle cx="47" cy="47" r="1.5" fill="#F97316" opacity="0.8"/>
    </pattern>
  </defs>
  <rect width="80" height="80" fill="url(#cityBlocks3)"/>
</svg>

