<svg xmlns="http://www.w3.org/2000/svg" width="120" height="120" viewBox="0 0 120 120">
  <defs>
    <pattern id="cityBlocks1" patternUnits="userSpaceOnUse" width="120" height="120">
      <rect width="120" height="120" fill="#18191A"/>
      
      <!-- Main roads -->
      <rect x="0" y="38" width="120" height="4" fill="#2d2e30"/>
      <rect x="0" y="78" width="120" height="4" fill="#2d2e30"/>
      <rect x="38" y="0" width="4" height="120" fill="#2d2e30"/>
      <rect x="78" y="0" width="4" height="120" fill="#2d2e30"/>
      
      <!-- Building blocks - top left quadrant -->
      <rect x="6" y="6" width="12" height="10" rx="1" fill="none" stroke="#6466e9" stroke-width="0.75" opacity="0.4"/>
      <rect x="22" y="8" width="10" height="8" rx="1" fill="none" stroke="#6466e9" stroke-width="0.75" opacity="0.35"/>
      <rect x="8" y="20" width="8" height="12" rx="1" fill="none" stroke="#6466e9" stroke-width="0.75" opacity="0.45"/>
      <rect x="20" y="22" width="14" height="10" rx="1" fill="none" stroke="#6466e9" stroke-width="0.75" opacity="0.4"/>
      
      <!-- Building blocks - top right quadrant -->
      <rect x="48" y="6" width="14" height="12" rx="1" fill="none" stroke="#6466e9" stroke-width="0.75" opacity="0.4"/>
      <rect x="66" y="8" width="8" height="8" rx="1" fill="none" stroke="#6466e9" stroke-width="0.75" opacity="0.35"/>
      <rect x="46" y="22" width="10" height="10" rx="1" fill="none" stroke="#6466e9" stroke-width="0.75" opacity="0.45"/>
      <rect x="60" y="20" width="12" height="12" rx="1" fill="none" stroke="#6466e9" stroke-width="0.75" opacity="0.4"/>
      
      <!-- Building blocks - bottom left quadrant -->
      <rect x="6" y="48" width="10" height="14" rx="1" fill="none" stroke="#6466e9" stroke-width="0.75" opacity="0.4"/>
      <rect x="20" y="46" width="12" height="10" rx="1" fill="none" stroke="#6466e9" stroke-width="0.75" opacity="0.35"/>
      <rect x="8" y="66" width="14" height="8" rx="1" fill="none" stroke="#6466e9" stroke-width="0.75" opacity="0.45"/>
      <rect x="26" y="62" width="8" height="12" rx="1" fill="none" stroke="#6466e9" stroke-width="0.75" opacity="0.4"/>
      
      <!-- Building blocks - bottom right quadrant -->
      <rect x="48" y="48" width="12" height="10" rx="1" fill="none" stroke="#6466e9" stroke-width="0.75" opacity="0.4"/>
      <rect x="64" y="46" width="10" height="12" rx="1" fill="none" stroke="#6466e9" stroke-width="0.75" opacity="0.35"/>
      <rect x="46" y="62" width="8" height="12" rx="1" fill="none" stroke="#6466e9" stroke-width="0.75" opacity="0.45"/>
      <rect x="58" y="64" width="14" height="10" rx="1" fill="none" stroke="#6466e9" stroke-width="0.75" opacity="0.4"/>
      
      <!-- Far right buildings -->
      <rect x="88" y="8" width="10" height="12" rx="1" fill="none" stroke="#6466e9" stroke-width="0.75" opacity="0.35"/>
      <rect x="102" y="6" width="12" height="10" rx="1" fill="none" stroke="#6466e9" stroke-width="0.75" opacity="0.4"/>
      <rect x="86" y="24" width="14" height="8" rx="1" fill="none" stroke="#6466e9" stroke-width="0.75" opacity="0.4"/>
      <rect x="104" y="22" width="10" height="12" rx="1" fill="none" stroke="#6466e9" stroke-width="0.75" opacity="0.35"/>
      
      <rect x="88" y="48" width="12" height="14" rx="1" fill="none" stroke="#6466e9" stroke-width="0.75" opacity="0.4"/>
      <rect x="104" y="50" width="10" height="10" rx="1" fill="none" stroke="#6466e9" stroke-width="0.75" opacity="0.35"/>
      <rect x="86" y="66" width="10" height="8" rx="1" fill="none" stroke="#6466e9" stroke-width="0.75" opacity="0.45"/>
      <rect x="100" y="64" width="14" height="10" rx="1" fill="none" stroke="#6466e9" stroke-width="0.75" opacity="0.4"/>
      
      <!-- Bottom row buildings -->
      <rect x="6" y="88" width="12" height="10" rx="1" fill="none" stroke="#6466e9" stroke-width="0.75" opacity="0.4"/>
      <rect x="22" y="90" width="10" height="12" rx="1" fill="none" stroke="#6466e9" stroke-width="0.75" opacity="0.35"/>
      <rect x="8" y="104" width="8" height="10" rx="1" fill="none" stroke="#6466e9" stroke-width="0.75" opacity="0.4"/>
      <rect x="20" y="106" width="14" height="8" rx="1" fill="none" stroke="#6466e9" stroke-width="0.75" opacity="0.45"/>
      
      <rect x="48" y="88" width="10" height="12" rx="1" fill="none" stroke="#6466e9" stroke-width="0.75" opacity="0.35"/>
      <rect x="62" y="86" width="12" height="10" rx="1" fill="none" stroke="#6466e9" stroke-width="0.75" opacity="0.4"/>
      <rect x="46" y="104" width="14" height="10" rx="1" fill="none" stroke="#6466e9" stroke-width="0.75" opacity="0.4"/>
      <rect x="64" y="102" width="10" height="12" rx="1" fill="none" stroke="#6466e9" stroke-width="0.75" opacity="0.35"/>
      
      <rect x="88" y="88" width="10" height="10" rx="1" fill="none" stroke="#6466e9" stroke-width="0.75" opacity="0.4"/>
      <rect x="102" y="90" width="12" height="12" rx="1" fill="none" stroke="#6466e9" stroke-width="0.75" opacity="0.35"/>
      <rect x="86" y="104" width="12" height="10" rx="1" fill="none" stroke="#6466e9" stroke-width="0.75" opacity="0.45"/>
      <rect x="102" y="106" width="10" height="8" rx="1" fill="none" stroke="#6466e9" stroke-width="0.75" opacity="0.4"/>
      
      <!-- Location markers -->
      <circle cx="30" cy="30" r="2" fill="#F97316" opacity="0.7"/>
      <circle cx="100" cy="70" r="2" fill="#F97316" opacity="0.7"/>
    </pattern>
  </defs>
  <rect width="120" height="120" fill="url(#cityBlocks1)"/>
</svg>

