<svg xmlns="http://www.w3.org/2000/svg" width="100" height="100" viewBox="0 0 100 100">
  <defs>
    <pattern id="cityBlocks2" patternUnits="userSpaceOnUse" width="100" height="100">
      <rect width="100" height="100" fill="#18191A"/>
      
      <!-- Grid roads - thinner, more refined -->
      <rect x="0" y="24" width="100" height="2" fill="#2d2e30"/>
      <rect x="0" y="49" width="100" height="2" fill="#2d2e30"/>
      <rect x="0" y="74" width="100" height="2" fill="#2d2e30"/>
      <rect x="24" y="0" width="2" height="100" fill="#2d2e30"/>
      <rect x="49" y="0" width="2" height="100" fill="#2d2e30"/>
      <rect x="74" y="0" width="2" height="100" fill="#2d2e30"/>
      
      <!-- Diagonal avenue -->
      <line x1="0" y1="0" x2="100" y2="100" stroke="#2d2e30" stroke-width="3" opacity="0.6"/>
      
      <!-- Buildings in cells -->
      <rect x="4" y="4" width="8" height="6" rx="0.5" fill="none" stroke="#6466e9" stroke-width="0.6" opacity="0.5"/>
      <rect x="14" y="5" width="6" height="8" rx="0.5" fill="none" stroke="#6466e9" stroke-width="0.6" opacity="0.4"/>
      
      <rect x="30" y="4" width="7" height="7" rx="0.5" fill="none" stroke="#6466e9" stroke-width="0.6" opacity="0.45"/>
      <rect x="40" y="6" width="6" height="5" rx="0.5" fill="none" stroke="#6466e9" stroke-width="0.6" opacity="0.4"/>
      
      <rect x="55" y="5" width="8" height="6" rx="0.5" fill="none" stroke="#6466e9" stroke-width="0.6" opacity="0.5"/>
      <rect x="66" y="4" width="5" height="8" rx="0.5" fill="none" stroke="#6466e9" stroke-width="0.6" opacity="0.4"/>
      
      <rect x="80" y="4" width="6" height="7" rx="0.5" fill="none" stroke="#6466e9" stroke-width="0.6" opacity="0.45"/>
      <rect x="90" y="6" width="7" height="5" rx="0.5" fill="none" stroke="#6466e9" stroke-width="0.6" opacity="0.4"/>
      
      <!-- Row 2 -->
      <rect x="4" y="30" width="6" height="8" rx="0.5" fill="none" stroke="#6466e9" stroke-width="0.6" opacity="0.4"/>
      <rect x="14" y="28" width="8" height="6" rx="0.5" fill="none" stroke="#6466e9" stroke-width="0.6" opacity="0.5"/>
      
      <rect x="28" y="30" width="7" height="6" rx="0.5" fill="none" stroke="#6466e9" stroke-width="0.6" opacity="0.45"/>
      <rect x="38" y="28" width="8" height="8" rx="0.5" fill="#6466e9" fill-opacity="0.15" stroke="#6466e9" stroke-width="0.6" opacity="0.5"/>
      
      <rect x="55" y="30" width="6" height="7" rx="0.5" fill="none" stroke="#6466e9" stroke-width="0.6" opacity="0.4"/>
      <rect x="64" y="28" width="7" height="6" rx="0.5" fill="none" stroke="#6466e9" stroke-width="0.6" opacity="0.45"/>
      
      <rect x="80" y="28" width="8" height="8" rx="0.5" fill="none" stroke="#6466e9" stroke-width="0.6" opacity="0.5"/>
      <rect x="92" y="30" width="5" height="6" rx="0.5" fill="none" stroke="#6466e9" stroke-width="0.6" opacity="0.4"/>
      
      <!-- Row 3 -->
      <rect x="5" y="55" width="7" height="6" rx="0.5" fill="none" stroke="#6466e9" stroke-width="0.6" opacity="0.45"/>
      <rect x="15" y="54" width="6" height="8" rx="0.5" fill="none" stroke="#6466e9" stroke-width="0.6" opacity="0.4"/>
      
      <rect x="30" y="54" width="6" height="7" rx="0.5" fill="none" stroke="#6466e9" stroke-width="0.6" opacity="0.4"/>
      <rect x="40" y="56" width="7" height="5" rx="0.5" fill="none" stroke="#6466e9" stroke-width="0.6" opacity="0.45"/>
      
      <rect x="54" y="55" width="8" height="7" rx="0.5" fill="#6466e9" fill-opacity="0.15" stroke="#6466e9" stroke-width="0.6" opacity="0.5"/>
      <rect x="66" y="54" width="5" height="8" rx="0.5" fill="none" stroke="#6466e9" stroke-width="0.6" opacity="0.4"/>
      
      <rect x="78" y="56" width="7" height="6" rx="0.5" fill="none" stroke="#6466e9" stroke-width="0.6" opacity="0.45"/>
      <rect x="90" y="54" width="6" height="8" rx="0.5" fill="none" stroke="#6466e9" stroke-width="0.6" opacity="0.4"/>
      
      <!-- Row 4 -->
      <rect x="4" y="80" width="8" height="7" rx="0.5" fill="none" stroke="#6466e9" stroke-width="0.6" opacity="0.5"/>
      <rect x="15" y="82" width="6" height="5" rx="0.5" fill="none" stroke="#6466e9" stroke-width="0.6" opacity="0.4"/>
      
      <rect x="28" y="80" width="6" height="8" rx="0.5" fill="none" stroke="#6466e9" stroke-width="0.6" opacity="0.4"/>
      <rect x="38" y="82" width="8" height="6" rx="0.5" fill="none" stroke="#6466e9" stroke-width="0.6" opacity="0.45"/>
      
      <rect x="55" y="80" width="7" height="7" rx="0.5" fill="none" stroke="#6466e9" stroke-width="0.6" opacity="0.45"/>
      <rect x="66" y="82" width="5" height="6" rx="0.5" fill="none" stroke="#6466e9" stroke-width="0.6" opacity="0.4"/>
      
      <rect x="80" y="80" width="6" height="8" rx="0.5" fill="none" stroke="#6466e9" stroke-width="0.6" opacity="0.4"/>
      <rect x="90" y="82" width="7" height="6" rx="0.5" fill="none" stroke="#6466e9" stroke-width="0.6" opacity="0.5"/>
      
      <!-- Location pin -->
      <circle cx="42" cy="32" r="1.5" fill="#F97316" opacity="0.8"/>
    </pattern>
  </defs>
  <rect width="100" height="100" fill="url(#cityBlocks2)"/>
</svg>

