<svg xmlns="http://www.w3.org/2000/svg" width="80" height="80" viewBox="0 0 80 80">
  <defs>
    <pattern id="cityBlocks3" patternUnits="userSpaceOnUse" width="80" height="80">
      <!-- Light map background -->
      <rect width="80" height="80" fill="#eae6e0"/>
      
      <!-- Small park -->
      <rect x="55" y="55" width="12" height="12" rx="1" fill="#c8dbb8" opacity="0.6"/>
      
      <!-- Major roads -->
      <rect x="0" y="26" width="80" height="4" fill="#ffffff"/>
      <rect x="0" y="52" width="80" height="4" fill="#ffffff"/>
      <rect x="26" y="0" width="4" height="80" fill="#ffffff"/>
      <rect x="52" y="0" width="4" height="80" fill="#ffffff"/>
      
      <!-- Minor streets -->
      <rect x="0" y="12" width="80" height="2" fill="#f5f2ef"/>
      <rect x="0" y="38" width="80" height="2" fill="#f5f2ef"/>
      <rect x="0" y="68" width="80" height="2" fill="#f5f2ef"/>
      <rect x="12" y="0" width="2" height="80" fill="#f5f2ef"/>
      <rect x="38" y="0" width="2" height="80" fill="#f5f2ef"/>
      <rect x="68" y="0" width="2" height="80" fill="#f5f2ef"/>
      
      <!-- Dense urban buildings -->
      <rect x="3" y="3" width="6" height="5" fill="#d3cdc5"/>
      <rect x="16" y="4" width="7" height="5" fill="#cdc6bd"/>
      <rect x="4" y="16" width="5" height="7" fill="#d9d3cb"/>
      <rect x="15" y="17" width="8" height="5" fill="#d3cdc5"/>
      
      <rect x="33" y="4" width="6" height="6" fill="#cdc6bd"/>
      <rect x="44" y="3" width="5" height="6" fill="#d3cdc5"/>
      <rect x="32" y="16" width="7" height="6" fill="#d9d3cb"/>
      <rect x="45" y="15" width="4" height="7" fill="#cdc6bd"/>
      
      <rect x="59" y="4" width="6" height="5" fill="#d3cdc5"/>
      <rect x="71" y="3" width="5" height="6" fill="#cdc6bd"/>
      <rect x="58" y="16" width="7" height="6" fill="#d9d3cb"/>
      <rect x="70" y="15" width="6" height="7" fill="#d3cdc5"/>
      
      <rect x="3" y="33" width="5" height="6" fill="#cdc6bd"/>
      <rect x="15" y="32" width="7" height="5" fill="#d3cdc5"/>
      <rect x="4" y="44" width="6" height="5" fill="#d9d3cb"/>
      <rect x="16" y="43" width="5" height="6" fill="#cdc6bd"/>
      
      <rect x="33" y="32" width="6" height="6" fill="#d3cdc5"/>
      <rect x="44" y="33" width="5" height="5" fill="#cdc6bd"/>
      <rect x="32" y="44" width="7" height="5" fill="#d9d3cb"/>
      <rect x="45" y="43" width="4" height="6" fill="#d3cdc5"/>
      
      <rect x="3" y="59" width="6" height="5" fill="#d3cdc5"/>
      <rect x="15" y="58" width="7" height="6" fill="#cdc6bd"/>
      <rect x="4" y="71" width="5" height="5" fill="#d9d3cb"/>
      <rect x="16" y="70" width="6" height="6" fill="#d3cdc5"/>
      
      <rect x="32" y="59" width="6" height="5" fill="#cdc6bd"/>
      <rect x="44" y="58" width="5" height="6" fill="#d3cdc5"/>
      <rect x="33" y="70" width="5" height="6" fill="#d9d3cb"/>
      <rect x="43" y="71" width="6" height="5" fill="#cdc6bd"/>
      
      <!-- Location pins -->
      <circle cx="20" cy="20" r="2.5" fill="#ea4335"/>
      <circle cx="60" cy="40" r="2.5" fill="#4285f4"/>
    </pattern>
  </defs>
  <rect width="80" height="80" fill="url(#cityBlocks3)"/>
</svg>
