<svg xmlns="http://www.w3.org/2000/svg" width="120" height="120" viewBox="0 0 120 120">
  <defs>
    <pattern id="cityBlocks1" patternUnits="userSpaceOnUse" width="120" height="120">
      <!-- Light map background -->
      <rect width="120" height="120" fill="#e8e4df"/>
      
      <!-- Parks/green spaces -->
      <rect x="85" y="8" width="25" height="18" rx="2" fill="#c5d9b5" opacity="0.7"/>
      <rect x="5" y="85" width="20" height="22" rx="2" fill="#c5d9b5" opacity="0.7"/>
      
      <!-- Main roads - white/cream -->
      <rect x="0" y="38" width="120" height="6" fill="#ffffff"/>
      <rect x="0" y="76" width="120" height="6" fill="#ffffff"/>
      <rect x="38" y="0" width="6" height="120" fill="#ffffff"/>
      <rect x="76" y="0" width="6" height="120" fill="#ffffff"/>
      
      <!-- Secondary streets - lighter -->
      <rect x="0" y="18" width="120" height="3" fill="#f5f3f0"/>
      <rect x="0" y="58" width="120" height="3" fill="#f5f3f0"/>
      <rect x="0" y="98" width="120" height="3" fill="#f5f3f0"/>
      <rect x="18" y="0" width="3" height="120" fill="#f5f3f0"/>
      <rect x="58" y="0" width="3" height="120" fill="#f5f3f0"/>
      <rect x="98" y="0" width="3" height="120" fill="#f5f3f0"/>
      
      <!-- Buildings - warm greys and tans -->
      <rect x="5" y="5" width="10" height="8" fill="#d4cdc4"/>
      <rect x="22" y="6" width="12" height="9" fill="#cec7be"/>
      <rect x="6" y="22" width="8" height="12" fill="#d9d2c9"/>
      <rect x="22" y="24" width="11" height="10" fill="#d4cdc4"/>
      
      <rect x="47" y="5" width="8" height="10" fill="#cec7be"/>
      <rect x="62" y="6" width="10" height="8" fill="#d4cdc4"/>
      <rect x="46" y="22" width="12" height="11" fill="#d9d2c9"/>
      <rect x="63" y="23" width="9" height="10" fill="#cec7be"/>
      
      <rect x="47" y="47" width="9" height="8" fill="#d4cdc4"/>
      <rect x="62" y="46" width="11" height="9" fill="#cec7be"/>
      <rect x="46" y="62" width="10" height="10" fill="#d9d2c9"/>
      <rect x="63" y="63" width="8" height="9" fill="#d4cdc4"/>
      
      <rect x="5" y="47" width="11" height="8" fill="#cec7be"/>
      <rect x="22" y="46" width="10" height="9" fill="#d4cdc4"/>
      <rect x="6" y="62" width="9" height="11" fill="#d9d2c9"/>
      <rect x="21" y="63" width="12" height="8" fill="#cec7be"/>
      
      <rect x="87" y="47" width="8" height="9" fill="#d4cdc4"/>
      <rect x="102" y="46" width="12" height="10" fill="#cec7be"/>
      <rect x="86" y="62" width="11" height="10" fill="#d9d2c9"/>
      <rect x="103" y="64" width="10" height="8" fill="#d4cdc4"/>
      
      <rect x="47" y="87" width="10" height="8" fill="#cec7be"/>
      <rect x="63" y="86" width="9" height="10" fill="#d4cdc4"/>
      <rect x="46" y="103" width="11" height="11" fill="#d9d2c9"/>
      <rect x="62" y="104" width="10" height="9" fill="#cec7be"/>
      
      <rect x="87" y="87" width="9" height="9" fill="#d4cdc4"/>
      <rect x="102" y="88" width="11" height="8" fill="#cec7be"/>
      <rect x="86" y="103" width="10" height="10" fill="#d9d2c9"/>
      <rect x="103" y="105" width="9" height="8" fill="#d4cdc4"/>
      
      <!-- Location pin -->
      <circle cx="55" cy="55" r="4" fill="#ea4335"/>
      <path d="M55 51 L55 47" stroke="#ea4335" stroke-width="2"/>
    </pattern>
  </defs>
  <rect width="120" height="120" fill="url(#cityBlocks1)"/>
</svg>
