<svg xmlns="http://www.w3.org/2000/svg" width="100" height="100" viewBox="0 0 100 100">
  <defs>
    <pattern id="cityBlocks2" patternUnits="userSpaceOnUse" width="100" height="100">
      <!-- Light map background -->
      <rect width="100" height="100" fill="#f0ece6"/>
      
      <!-- Water feature -->
      <ellipse cx="80" cy="20" rx="18" ry="12" fill="#a8d4e6" opacity="0.6"/>
      
      <!-- Main roads -->
      <rect x="0" y="32" width="100" height="5" fill="#ffffff"/>
      <rect x="0" y="65" width="100" height="5" fill="#ffffff"/>
      <rect x="32" y="0" width="5" height="100" fill="#ffffff"/>
      <rect x="65" y="0" width="5" height="100" fill="#ffffff"/>
      
      <!-- Diagonal boulevard -->
      <line x1="0" y1="100" x2="100" y2="0" stroke="#ffffff" stroke-width="4"/>
      
      <!-- Side streets -->
      <rect x="0" y="15" width="100" height="2" fill="#f7f5f2"/>
      <rect x="0" y="50" width="100" height="2" fill="#f7f5f2"/>
      <rect x="0" y="82" width="100" height="2" fill="#f7f5f2"/>
      <rect x="15" y="0" width="2" height="100" fill="#f7f5f2"/>
      <rect x="50" y="0" width="2" height="100" fill="#f7f5f2"/>
      <rect x="82" y="0" width="2" height="100" fill="#f7f5f2"/>
      
      <!-- Buildings - varied warm greys -->
      <rect x="4" y="4" width="8" height="7" fill="#d6d0c8"/>
      <rect x="20" y="5" width="9" height="8" fill="#d0c9c0"/>
      <rect x="5" y="20" width="7" height="9" fill="#dcd6ce"/>
      <rect x="19" y="21" width="10" height="7" fill="#d6d0c8"/>
      
      <rect x="40" y="5" width="8" height="8" fill="#d0c9c0"/>
      <rect x="54" y="4" width="7" height="9" fill="#d6d0c8"/>
      <rect x="41" y="20" width="9" height="8" fill="#dcd6ce"/>
      <rect x="55" y="19" width="7" height="9" fill="#d0c9c0"/>
      
      <rect x="40" y="40" width="7" height="8" fill="#d6d0c8"/>
      <rect x="54" y="41" width="8" height="7" fill="#d0c9c0"/>
      <rect x="41" y="54" width="8" height="8" fill="#dcd6ce"/>
      <rect x="55" y="55" width="7" height="7" fill="#d6d0c8"/>
      
      <rect x="4" y="40" width="9" height="7" fill="#d0c9c0"/>
      <rect x="20" y="41" width="8" height="8" fill="#d6d0c8"/>
      <rect x="5" y="55" width="7" height="7" fill="#dcd6ce"/>
      <rect x="19" y="54" width="9" height="8" fill="#d0c9c0"/>
      
      <rect x="74" y="40" width="8" height="8" fill="#d6d0c8"/>
      <rect x="87" y="41" width="9" height="7" fill="#d0c9c0"/>
      <rect x="73" y="55" width="9" height="7" fill="#dcd6ce"/>
      <rect x="88" y="54" width="8" height="8" fill="#d6d0c8"/>
      
      <rect x="4" y="72" width="8" height="7" fill="#d0c9c0"/>
      <rect x="19" y="73" width="9" height="8" fill="#d6d0c8"/>
      <rect x="5" y="87" width="7" height="9" fill="#dcd6ce"/>
      <rect x="20" y="88" width="8" height="7" fill="#d0c9c0"/>
      
      <rect x="40" y="73" width="8" height="7" fill="#d6d0c8"/>
      <rect x="54" y="72" width="7" height="8" fill="#d0c9c0"/>
      <rect x="41" y="87" width="7" height="8" fill="#dcd6ce"/>
      <rect x="53" y="88" width="9" height="7" fill="#d6d0c8"/>
      
      <rect x="73" y="73" width="9" height="7" fill="#d0c9c0"/>
      <rect x="87" y="72" width="8" height="8" fill="#d6d0c8"/>
      <rect x="74" y="87" width="7" height="8" fill="#dcd6ce"/>
      <rect x="86" y="88" width="9" height="7" fill="#d0c9c0"/>
      
      <!-- Location pin -->
      <circle cx="47" cy="47" r="3" fill="#ea4335"/>
    </pattern>
  </defs>
  <rect width="100" height="100" fill="url(#cityBlocks2)"/>
</svg>
