<svg xmlns="http://www.w3.org/2000/svg" width="100" height="100" viewBox="0 0 100 100">
  <defs>
    <pattern id="cityBlocks5" patternUnits="userSpaceOnUse" width="100" height="100">
      <!-- Light map background -->
      <rect width="100" height="100" fill="#edeae4"/>
      
      <!-- Large park area -->
      <rect x="70" y="5" width="25" height="25" rx="3" fill="#c5dab5" opacity="0.6"/>
      
      <!-- Highway - thicker, yellow tinted -->
      <line x1="0" y1="100" x2="100" y2="0" stroke="#fef3c7" stroke-width="8"/>
      <line x1="0" y1="100" x2="100" y2="0" stroke="#fcd34d" stroke-width="2" opacity="0.5"/>
      
      <!-- Major roads -->
      <rect x="0" y="35" width="100" height="5" fill="#ffffff"/>
      <rect x="0" y="70" width="100" height="5" fill="#ffffff"/>
      <rect x="35" y="0" width="5" height="100" fill="#ffffff"/>
      <rect x="70" y="35" width="5" height="65" fill="#ffffff"/>
      
      <!-- Minor streets -->
      <rect x="0" y="18" width="100" height="2" fill="#f6f4f0"/>
      <rect x="0" y="52" width="100" height="2" fill="#f6f4f0"/>
      <rect x="0" y="85" width="100" height="2" fill="#f6f4f0"/>
      <rect x="18" y="0" width="2" height="100" fill="#f6f4f0"/>
      <rect x="52" y="0" width="2" height="100" fill="#f6f4f0"/>
      <rect x="85" y="0" width="2" height="100" fill="#f6f4f0"/>
      
      <!-- Buildings - NW quadrant -->
      <rect x="4" y="5" width="10" height="8" fill="#d4cec6"/>
      <rect x="22" y="6" width="8" height="9" fill="#cec7be"/>
      <rect x="5" y="22" width="9" height="8" fill="#dad4cc"/>
      <rect x="21" y="23" width="10" height="7" fill="#d4cec6"/>
      
      <!-- Buildings - West of highway -->
      <rect x="4" y="42" width="8" height="7" fill="#cec7be"/>
      <rect x="20" y="43" width="10" height="6" fill="#d4cec6"/>
      <rect x="5" y="56" width="9" height="8" fill="#dad4cc"/>
      <rect x="22" y="57" width="8" height="7" fill="#cec7be"/>
      
      <rect x="4" y="77" width="10" height="6" fill="#d4cec6"/>
      <rect x="21" y="78" width="9" height="7" fill="#cec7be"/>
      <rect x="5" y="90" width="8" height="6" fill="#dad4cc"/>
      <rect x="20" y="91" width="10" height="5" fill="#d4cec6"/>
      
      <!-- Buildings - East blocks -->
      <rect x="43" y="5" width="8" height="8" fill="#cec7be"/>
      <rect x="56" y="6" width="9" height="7" fill="#d4cec6"/>
      <rect x="44" y="22" width="7" height="8" fill="#dad4cc"/>
      <rect x="57" y="21" width="8" height="9" fill="#cec7be"/>
      
      <rect x="43" y="43" width="9" height="6" fill="#d4cec6"/>
      <rect x="57" y="42" width="8" height="7" fill="#cec7be"/>
      <rect x="44" y="56" width="8" height="8" fill="#dad4cc"/>
      <rect x="56" y="57" width="9" height="7" fill="#d4cec6"/>
      
      <rect x="43" y="78" width="8" height="6" fill="#cec7be"/>
      <rect x="56" y="77" width="9" height="7" fill="#d4cec6"/>
      <rect x="44" y="90" width="9" height="6" fill="#dad4cc"/>
      <rect x="57" y="91" width="8" height="5" fill="#cec7be"/>
      
      <!-- Buildings - SE quadrant -->
      <rect x="78" y="43" width="7" height="7" fill="#d4cec6"/>
      <rect x="90" y="42" width="6" height="8" fill="#cec7be"/>
      <rect x="77" y="56" width="8" height="8" fill="#dad4cc"/>
      <rect x="89" y="57" width="7" height="7" fill="#d4cec6"/>
      
      <rect x="78" y="78" width="8" height="6" fill="#cec7be"/>
      <rect x="90" y="77" width="6" height="7" fill="#d4cec6"/>
      <rect x="77" y="90" width="7" height="6" fill="#dad4cc"/>
      <rect x="89" y="91" width="7" height="5" fill="#cec7be"/>
      
      <!-- Location pins -->
      <circle cx="28" cy="28" r="3" fill="#ea4335"/>
      <circle cx="62" cy="62" r="3" fill="#ea4335"/>
    </pattern>
  </defs>
  <rect width="100" height="100" fill="url(#cityBlocks5)"/>
</svg>
