<svg xmlns="http://www.w3.org/2000/svg" width="70" height="70" viewBox="0 0 70 70">
  <defs>
    <pattern id="cityBlocks6" patternUnits="userSpaceOnUse" width="70" height="70">
      <rect width="70" height="70" fill="#18191A"/>
      
      <!-- Roundabout/circle intersection -->
      <circle cx="35" cy="35" r="8" fill="none" stroke="#2d2e30" stroke-width="3"/>
      
      <!-- Roads radiating from center -->
      <rect x="0" y="33" width="27" height="4" fill="#2d2e30"/>
      <rect x="43" y="33" width="27" height="4" fill="#2d2e30"/>
      <rect x="33" y="0" width="4" height="27" fill="#2d2e30"/>
      <rect x="33" y="43" width="4" height="27" fill="#2d2e30"/>
      
      <!-- Diagonal roads -->
      <line x1="0" y1="0" x2="24" y2="24" stroke="#252627" stroke-width="2" opacity="0.7"/>
      <line x1="70" y1="0" x2="46" y2="24" stroke="#252627" stroke-width="2" opacity="0.7"/>
      <line x1="0" y1="70" x2="24" y2="46" stroke="#252627" stroke-width="2" opacity="0.7"/>
      <line x1="70" y1="70" x2="46" y2="46" stroke="#252627" stroke-width="2" opacity="0.7"/>
      
      <!-- Buildings - NW quadrant -->
      <rect x="4" y="4" width="5" height="4" rx="0.5" fill="none" stroke="#6466e9" stroke-width="0.5" opacity="0.5"/>
      <rect x="11" y="3" width="4" height="5" rx="0.5" fill="none" stroke="#6466e9" stroke-width="0.5" opacity="0.45"/>
      <rect x="17" y="5" width="5" height="4" rx="0.5" fill="none" stroke="#6466e9" stroke-width="0.5" opacity="0.4"/>
      <rect x="3" y="11" width="4" height="5" rx="0.5" fill="none" stroke="#6466e9" stroke-width="0.5" opacity="0.45"/>
      <rect x="9" y="10" width="5" height="4" rx="0.5" fill="none" stroke="#6466e9" stroke-width="0.5" opacity="0.5"/>
      <rect x="4" y="19" width="5" height="4" rx="0.5" fill="none" stroke="#6466e9" stroke-width="0.5" opacity="0.5"/>
      <rect x="11" y="18" width="4" height="5" rx="0.5" fill="none" stroke="#6466e9" stroke-width="0.5" opacity="0.45"/>
      <rect x="3" y="26" width="4" height="4" rx="0.5" fill="none" stroke="#6466e9" stroke-width="0.5" opacity="0.45"/>
      <rect x="9" y="25" width="5" height="5" rx="0.5" fill="#6466e9" fill-opacity="0.2" stroke="#6466e9" stroke-width="0.5" opacity="0.55"/>
      
      <!-- Buildings - NE quadrant -->
      <rect x="48" y="4" width="4" height="5" rx="0.5" fill="none" stroke="#6466e9" stroke-width="0.5" opacity="0.4"/>
      <rect x="54" y="3" width="5" height="4" rx="0.5" fill="none" stroke="#6466e9" stroke-width="0.5" opacity="0.5"/>
      <rect x="61" y="5" width="4" height="5" rx="0.5" fill="none" stroke="#6466e9" stroke-width="0.5" opacity="0.45"/>
      <rect x="55" y="10" width="4" height="5" rx="0.5" fill="none" stroke="#6466e9" stroke-width="0.5" opacity="0.5"/>
      <rect x="61" y="12" width="5" height="4" rx="0.5" fill="none" stroke="#6466e9" stroke-width="0.5" opacity="0.45"/>
      <rect x="56" y="18" width="5" height="4" rx="0.5" fill="none" stroke="#6466e9" stroke-width="0.5" opacity="0.45"/>
      <rect x="63" y="19" width="4" height="5" rx="0.5" fill="none" stroke="#6466e9" stroke-width="0.5" opacity="0.5"/>
      <rect x="55" y="25" width="4" height="5" rx="0.5" fill="#6466e9" fill-opacity="0.2" stroke="#6466e9" stroke-width="0.5" opacity="0.55"/>
      <rect x="61" y="26" width="5" height="4" rx="0.5" fill="none" stroke="#6466e9" stroke-width="0.5" opacity="0.45"/>
      
      <!-- Buildings - SW quadrant -->
      <rect x="4" y="40" width="4" height="5" rx="0.5" fill="none" stroke="#6466e9" stroke-width="0.5" opacity="0.45"/>
      <rect x="10" y="41" width="5" height="4" rx="0.5" fill="none" stroke="#6466e9" stroke-width="0.5" opacity="0.5"/>
      <rect x="3" y="48" width="5" height="4" rx="0.5" fill="none" stroke="#6466e9" stroke-width="0.5" opacity="0.5"/>
      <rect x="10" y="47" width="4" height="5" rx="0.5" fill="none" stroke="#6466e9" stroke-width="0.5" opacity="0.45"/>
      <rect x="17" y="50" width="5" height="4" rx="0.5" fill="none" stroke="#6466e9" stroke-width="0.5" opacity="0.4"/>
      <rect x="4" y="56" width="4" height="5" rx="0.5" fill="none" stroke="#6466e9" stroke-width="0.5" opacity="0.45"/>
      <rect x="10" y="55" width="5" height="4" rx="0.5" fill="none" stroke="#6466e9" stroke-width="0.5" opacity="0.5"/>
      <rect x="3" y="63" width="5" height="4" rx="0.5" fill="none" stroke="#6466e9" stroke-width="0.5" opacity="0.5"/>
      <rect x="10" y="62" width="4" height="5" rx="0.5" fill="none" stroke="#6466e9" stroke-width="0.5" opacity="0.45"/>
      
      <!-- Buildings - SE quadrant -->
      <rect x="55" y="40" width="5" height="4" rx="0.5" fill="none" stroke="#6466e9" stroke-width="0.5" opacity="0.5"/>
      <rect x="62" y="41" width="4" height="5" rx="0.5" fill="none" stroke="#6466e9" stroke-width="0.5" opacity="0.45"/>
      <rect x="48" y="48" width="4" height="4" rx="0.5" fill="none" stroke="#6466e9" stroke-width="0.5" opacity="0.4"/>
      <rect x="54" y="47" width="5" height="5" rx="0.5" fill="none" stroke="#6466e9" stroke-width="0.5" opacity="0.5"/>
      <rect x="61" y="49" width="5" height="4" rx="0.5" fill="none" stroke="#6466e9" stroke-width="0.5" opacity="0.45"/>
      <rect x="55" y="56" width="4" height="5" rx="0.5" fill="none" stroke="#6466e9" stroke-width="0.5" opacity="0.45"/>
      <rect x="61" y="55" width="5" height="4" rx="0.5" fill="none" stroke="#6466e9" stroke-width="0.5" opacity="0.5"/>
      <rect x="54" y="63" width="5" height="4" rx="0.5" fill="none" stroke="#6466e9" stroke-width="0.5" opacity="0.5"/>
      <rect x="61" y="62" width="4" height="5" rx="0.5" fill="none" stroke="#6466e9" stroke-width="0.5" opacity="0.45"/>
      
      <!-- Center marker -->
      <circle cx="35" cy="35" r="2" fill="#F97316" opacity="0.9"/>
    </pattern>
  </defs>
  <rect width="70" height="70" fill="url(#cityBlocks6)"/>
</svg>

