<svg xmlns="http://www.w3.org/2000/svg" width="200" height="200" viewBox="0 0 200 200">
  <rect width="200" height="200" fill="#18191A"/>
  
  <!-- Heat map grid - submarkets with varying intensity -->
  <!-- Row 1 -->
  <rect x="5" y="5" width="35" height="35" rx="3" fill="#4a4dcf" opacity="0.3"/>
  <rect x="45" y="5" width="35" height="35" rx="3" fill="#5558d9" opacity="0.4"/>
  <rect x="85" y="5" width="35" height="35" rx="3" fill="#6466e9" opacity="0.5"/>
  <rect x="125" y="5" width="35" height="35" rx="3" fill="#818cf8" opacity="0.6"/>
  <rect x="165" y="5" width="30" height="35" rx="3" fill="#6466e9" opacity="0.45"/>
  
  <!-- Row 2 -->
  <rect x="5" y="45" width="35" height="35" rx="3" fill="#5558d9" opacity="0.35"/>
  <rect x="45" y="45" width="35" height="35" rx="3" fill="#6466e9" opacity="0.5"/>
  <rect x="85" y="45" width="35" height="35" rx="3" fill="#F97316" opacity="0.7"/>
  <rect x="125" y="45" width="35" height="35" rx="3" fill="#F97316" opacity="0.6"/>
  <rect x="165" y="45" width="30" height="35" rx="3" fill="#818cf8" opacity="0.5"/>
  
  <!-- Row 3 -->
  <rect x="5" y="85" width="35" height="35" rx="3" fill="#6466e9" opacity="0.4"/>
  <rect x="45" y="85" width="35" height="35" rx="3" fill="#F97316" opacity="0.6"/>
  <rect x="85" y="85" width="35" height="35" rx="3" fill="#F97316" opacity="0.9"/>
  <rect x="125" y="85" width="35" height="35" rx="3" fill="#F97316" opacity="0.75"/>
  <rect x="165" y="85" width="30" height="35" rx="3" fill="#6466e9" opacity="0.55"/>
  
  <!-- Row 4 -->
  <rect x="5" y="125" width="35" height="35" rx="3" fill="#4a4dcf" opacity="0.35"/>
  <rect x="45" y="125" width="35" height="35" rx="3" fill="#6466e9" opacity="0.5"/>
  <rect x="85" y="125" width="35" height="35" rx="3" fill="#F97316" opacity="0.65"/>
  <rect x="125" y="125" width="35" height="35" rx="3" fill="#6466e9" opacity="0.55"/>
  <rect x="165" y="125" width="30" height="35" rx="3" fill="#5558d9" opacity="0.4"/>
  
  <!-- Row 5 -->
  <rect x="5" y="165" width="35" height="30" rx="3" fill="#4a4dcf" opacity="0.25"/>
  <rect x="45" y="165" width="35" height="30" rx="3" fill="#5558d9" opacity="0.35"/>
  <rect x="85" y="165" width="35" height="30" rx="3" fill="#6466e9" opacity="0.45"/>
  <rect x="125" y="165" width="35" height="30" rx="3" fill="#5558d9" opacity="0.4"/>
  <rect x="165" y="165" width="30" height="30" rx="3" fill="#4a4dcf" opacity="0.3"/>
  
  <!-- Hot spot indicator -->
  <circle cx="102" cy="102" r="12" fill="none" stroke="#F97316" stroke-width="2" stroke-dasharray="4 2" opacity="0.8"/>
</svg>

