<svg xmlns="http://www.w3.org/2000/svg" width="140" height="140" viewBox="0 0 140 140">
  <defs>
    <pattern id="metro2" patternUnits="userSpaceOnUse" width="140" height="140">
      <!-- Light map background -->
      <rect width="140" height="140" fill="#edeae4"/>
      
      <!-- River running through -->
      <path d="M0 50 Q35 45, 70 55 T140 45" fill="none" stroke="#a8d4e6" stroke-width="12" opacity="0.6"/>
      
      <!-- Major interstate highways -->
      <path d="M0 90 L140 90" stroke="#fef3c7" stroke-width="5"/>
      <path d="M0 90 L140 90" stroke="#fcd34d" stroke-width="1" opacity="0.6"/>
      <path d="M70 0 L70 140" stroke="#fef3c7" stroke-width="5"/>
      <path d="M70 0 L70 140" stroke="#fcd34d" stroke-width="1" opacity="0.6"/>
      
      <!-- Arterial roads -->
      <rect x="0" y="25" width="140" height="2" fill="#ffffff"/>
      <rect x="0" y="115" width="140" height="2" fill="#ffffff"/>
      <rect x="25" y="0" width="2" height="140" fill="#ffffff"/>
      <rect x="105" y="0" width="2" height="140" fill="#ffffff"/>
      
      <!-- Bridges over river -->
      <rect x="24" y="48" width="4" height="8" fill="#d0c9c0"/>
      <rect x="68" y="52" width="4" height="8" fill="#d0c9c0"/>
      <rect x="103" y="46" width="4" height="8" fill="#d0c9c0"/>
      
      <!-- Suburban districts - north of river -->
      <rect x="8" y="8" width="12" height="10" rx="1" fill="#dbd5cd" opacity="0.7"/>
      <rect x="35" y="10" width="14" height="8" rx="1" fill="#d5cfc7" opacity="0.7"/>
      <rect x="78" y="8" width="10" height="10" rx="1" fill="#dbd5cd" opacity="0.7"/>
      <rect x="112" y="10" width="16" height="8" rx="1" fill="#d5cfc7" opacity="0.7"/>
      
      <rect x="10" y="30" width="10" height="12" rx="1" fill="#d5cfc7" opacity="0.7"/>
      <rect x="80" y="28" width="12" height="10" rx="1" fill="#dbd5cd" opacity="0.7"/>
      <rect x="110" y="30" width="14" height="8" rx="1" fill="#d5cfc7" opacity="0.7"/>
      
      <!-- Downtown - south of river -->
      <rect x="55" y="65" width="30" height="18" rx="2" fill="#c8c2ba" opacity="0.85"/>
      
      <!-- Residential districts - south -->
      <rect x="8" y="68" width="14" height="12" rx="1" fill="#d5cfc7" opacity="0.7"/>
      <rect x="32" y="70" width="12" height="10" rx="1" fill="#dbd5cd" opacity="0.7"/>
      <rect x="95" y="68" width="16" height="12" rx="1" fill="#d5cfc7" opacity="0.7"/>
      <rect x="120" y="70" width="12" height="10" rx="1" fill="#dbd5cd" opacity="0.7"/>
      
      <rect x="10" y="100" width="10" height="10" rx="1" fill="#dbd5cd" opacity="0.7"/>
      <rect x="35" y="98" width="14" height="12" rx="1" fill="#d5cfc7" opacity="0.7"/>
      <rect x="55" y="100" width="12" height="10" rx="1" fill="#dbd5cd" opacity="0.7"/>
      <rect x="80" y="98" width="16" height="12" rx="1" fill="#d5cfc7" opacity="0.7"/>
      <rect x="110" y="100" width="14" height="10" rx="1" fill="#dbd5cd" opacity="0.7"/>
      
      <rect x="8" y="122" width="12" height="10" rx="1" fill="#d5cfc7" opacity="0.7"/>
      <rect x="32" y="120" width="16" height="12" rx="1" fill="#dbd5cd" opacity="0.7"/>
      <rect x="78" y="122" width="12" height="10" rx="1" fill="#d5cfc7" opacity="0.7"/>
      <rect x="108" y="120" width="18" height="12" rx="1" fill="#dbd5cd" opacity="0.7"/>
      
      <!-- Parks -->
      <ellipse cx="50" cy="75" rx="6" ry="8" fill="#c5dab5" opacity="0.6"/>
      <rect x="120" y="65" width="10" height="14" rx="2" fill="#c5dab5" opacity="0.6"/>
      
      <!-- Location markers -->
      <circle cx="70" cy="74" r="4" fill="#ea4335"/>
      <circle cx="20" cy="35" r="2.5" fill="#4285f4"/>
    </pattern>
  </defs>
  <rect width="140" height="140" fill="url(#metro2)"/>
</svg>

