<svg xmlns="http://www.w3.org/2000/svg" width="300" height="300" viewBox="0 0 300 300">
  <defs>
    <pattern id="topoLines" patternUnits="userSpaceOnUse" width="300" height="300">
      <!-- Background -->
      <rect width="300" height="300" fill="#18191A"/>
      
      <!-- Topographic contour lines -->
      <ellipse cx="150" cy="150" rx="140" ry="130" fill="none" stroke="#6466e9" stroke-width="0.8" opacity="0.15"/>
      <ellipse cx="150" cy="150" rx="120" ry="110" fill="none" stroke="#6466e9" stroke-width="0.8" opacity="0.18"/>
      <ellipse cx="150" cy="150" rx="100" ry="90" fill="none" stroke="#6466e9" stroke-width="0.8" opacity="0.22"/>
      <ellipse cx="150" cy="150" rx="80" ry="70" fill="none" stroke="#6466e9" stroke-width="0.8" opacity="0.26"/>
      <ellipse cx="150" cy="150" rx="60" ry="52" fill="none" stroke="#6466e9" stroke-width="0.8" opacity="0.30"/>
      <ellipse cx="150" cy="150" rx="40" ry="35" fill="none" stroke="#6466e9" stroke-width="0.8" opacity="0.35"/>
      <ellipse cx="150" cy="150" rx="22" ry="18" fill="none" stroke="#6466e9" stroke-width="0.8" opacity="0.40"/>
      
      <!-- Secondary elevation - offset -->
      <ellipse cx="80" cy="220" rx="70" ry="60" fill="none" stroke="#6466e9" stroke-width="0.6" opacity="0.12"/>
      <ellipse cx="80" cy="220" rx="50" ry="42" fill="none" stroke="#6466e9" stroke-width="0.6" opacity="0.16"/>
      <ellipse cx="80" cy="220" rx="30" ry="24" fill="none" stroke="#6466e9" stroke-width="0.6" opacity="0.20"/>
      
      <!-- Third elevation cluster -->
      <ellipse cx="250" cy="70" rx="55" ry="48" fill="none" stroke="#6466e9" stroke-width="0.6" opacity="0.12"/>
      <ellipse cx="250" cy="70" rx="35" ry="30" fill="none" stroke="#6466e9" stroke-width="0.6" opacity="0.18"/>
      <ellipse cx="250" cy="70" rx="18" ry="14" fill="none" stroke="#6466e9" stroke-width="0.6" opacity="0.24"/>
      
      <!-- Subtle grid reference -->
      <line x1="0" y1="75" x2="300" y2="75" stroke="#2d2e30" stroke-width="0.3" opacity="0.4"/>
      <line x1="0" y1="150" x2="300" y2="150" stroke="#2d2e30" stroke-width="0.3" opacity="0.4"/>
      <line x1="0" y1="225" x2="300" y2="225" stroke="#2d2e30" stroke-width="0.3" opacity="0.4"/>
      <line x1="75" y1="0" x2="75" y2="300" stroke="#2d2e30" stroke-width="0.3" opacity="0.4"/>
      <line x1="150" y1="0" x2="150" y2="300" stroke="#2d2e30" stroke-width="0.3" opacity="0.4"/>
      <line x1="225" y1="0" x2="225" y2="300" stroke="#2d2e30" stroke-width="0.3" opacity="0.4"/>
    </pattern>
  </defs>
  <rect width="300" height="300" fill="url(#topoLines)"/>
</svg>


