<svg xmlns="http://www.w3.org/2000/svg" width="240" height="240" viewBox="0 0 240 240">
  <defs>
    <pattern id="urbanBlocks" patternUnits="userSpaceOnUse" width="240" height="240">
      <!-- Background -->
      <rect width="240" height="240" fill="#18191A"/>
      
      <!-- Major streets -->
      <rect x="0" y="78" width="240" height="4" fill="#2d2e30"/>
      <rect x="0" y="158" width="240" height="4" fill="#2d2e30"/>
      <rect x="78" y="0" width="4" height="240" fill="#2d2e30"/>
      <rect x="158" y="0" width="4" height="240" fill="#2d2e30"/>
      
      <!-- City blocks - varied sizes like real urban planning -->
      <!-- Top left quadrant -->
      <rect x="8" y="8" width="28" height="22" fill="#6466e9" opacity="0.12"/>
      <rect x="42" y="10" width="30" height="26" fill="#6466e9" opacity="0.15"/>
      <rect x="10" y="36" width="24" height="18" fill="#6466e9" opacity="0.1"/>
      <rect x="40" y="42" width="32" height="28" fill="#6466e9" opacity="0.18"/>
      
      <!-- Top right quadrant -->
      <rect x="88" y="8" width="26" height="24" fill="#6466e9" opacity="0.14"/>
      <rect x="120" y="12" width="32" height="20" fill="#6466e9" opacity="0.16"/>
      <rect x="90" y="40" width="22" height="30" fill="#6466e9" opacity="0.12"/>
      <rect x="118" y="38" width="34" height="32" fill="#6466e9" opacity="0.2"/>
      
      <!-- Center-top -->
      <rect x="168" y="10" width="28" height="26" fill="#6466e9" opacity="0.13"/>
      <rect x="200" y="8" width="32" height="22" fill="#6466e9" opacity="0.15"/>
      <rect x="170" y="44" width="24" height="24" fill="#6466e9" opacity="0.11"/>
      <rect x="198" y="38" width="36" height="32" fill="#6466e9" opacity="0.17"/>
      
      <!-- Middle row -->
      <rect x="8" y="88" width="30" height="28" fill="#6466e9" opacity="0.16"/>
      <rect x="44" y="90" width="26" height="22" fill="#6466e9" opacity="0.12"/>
      <rect x="10" y="122" width="28" height="26" fill="#6466e9" opacity="0.14"/>
      <rect x="44" y="118" width="30" height="32" fill="#6466e9" opacity="0.18"/>
      
      <rect x="88" y="88" width="32" height="26" fill="#6466e9" opacity="0.2"/>
      <rect x="126" y="90" width="24" height="24" fill="#6466e9" opacity="0.15"/>
      <rect x="90" y="120" width="26" height="30" fill="#6466e9" opacity="0.13"/>
      <rect x="122" y="122" width="30" height="28" fill="#6466e9" opacity="0.17"/>
      
      <rect x="168" y="88" width="28" height="24" fill="#6466e9" opacity="0.14"/>
      <rect x="202" y="90" width="32" height="28" fill="#6466e9" opacity="0.16"/>
      <rect x="170" y="118" width="24" height="32" fill="#6466e9" opacity="0.12"/>
      <rect x="200" y="124" width="34" height="26" fill="#6466e9" opacity="0.19"/>
      
      <!-- Bottom row -->
      <rect x="8" y="168" width="26" height="24" fill="#6466e9" opacity="0.13"/>
      <rect x="40" y="170" width="32" height="28" fill="#6466e9" opacity="0.17"/>
      <rect x="10" y="198" width="30" height="34" fill="#6466e9" opacity="0.15"/>
      <rect x="46" y="204" width="26" height="28" fill="#6466e9" opacity="0.11"/>
      
      <rect x="88" y="168" width="28" height="30" fill="#6466e9" opacity="0.16"/>
      <rect x="122" y="170" width="30" height="26" fill="#6466e9" opacity="0.14"/>
      <rect x="90" y="204" width="24" height="28" fill="#6466e9" opacity="0.12"/>
      <rect x="120" y="202" width="32" height="32" fill="#6466e9" opacity="0.18"/>
      
      <rect x="168" y="168" width="30" height="26" fill="#6466e9" opacity="0.15"/>
      <rect x="204" y="170" width="28" height="30" fill="#6466e9" opacity="0.13"/>
      <rect x="170" y="200" width="26" height="32" fill="#6466e9" opacity="0.17"/>
      <rect x="202" y="206" width="32" height="26" fill="#6466e9" opacity="0.14"/>
      
      <!-- Highlight blocks (like selected properties) -->
      <rect x="118" y="38" width="34" height="32" fill="none" stroke="#F97316" stroke-width="1.5" opacity="0.5"/>
      <rect x="88" y="88" width="32" height="26" fill="none" stroke="#F97316" stroke-width="1.5" opacity="0.4"/>
    </pattern>
  </defs>
  <rect width="240" height="240" fill="url(#urbanBlocks)"/>
</svg>

